HIERARCHY
ROOT Hips
{
	OFFSET 0.000000 0.000000 0.000000
	CHANNELS 6 Xposition Yposition Zposition Zrotation Yrotation Xrotation 
	JOINT LHipJoint
	{
		OFFSET 0.000000 0.000000 0.000000
		CHANNELS 3 Zrotation Yrotation Xrotation
		JOINT LeftUpLeg
		{
			OFFSET 1.363060 -1.794630 0.839290
			CHANNELS 3 Zrotation Yrotation Xrotation
			JOINT LeftLeg
			{
				OFFSET 2.448110 -6.726130 0.000000
				CHANNELS 3 Zrotation Yrotation Xrotation
				JOINT LeftFoot
				{
					OFFSET 2.562200 -7.039590 0.000000
					CHANNELS 3 Zrotation Yrotation Xrotation
					JOINT LeftToeBase
					{
						OFFSET 0.157640 -0.433110 2.322550
						CHANNELS 3 Zrotation Yrotation Xrotation
						End Site
						{
							OFFSET 0.000000 0.000000 0.000000
						}
					}
				}
			}
		}
	}
	JOINT RHipJoint
	{
		OFFSET 0.000000 0.000000 0.000000
		CHANNELS 3 Zrotation Yrotation Xrotation
		JOINT RightUpLeg
		{
			OFFSET -1.305520 -1.794630 0.839290
			CHANNELS 3 Zrotation Yrotation Xrotation
			JOINT RightLeg
			{
				OFFSET -2.542530 -6.985550 0.000000
				CHANNELS 3 Zrotation Yrotation Xrotation
				JOINT RightFoot
				{
					OFFSET -2.568260 -7.056230 0.000000
					CHANNELS 3 Zrotation Yrotation Xrotation
					JOINT RightToeBase
					{
						OFFSET -0.164730 -0.452590 2.363150
						CHANNELS 3 Zrotation Yrotation Xrotation
						End Site
						{
							OFFSET 0.000000 0.000000 0.000000
						}
					}
				}
			}
		}
	}
	JOINT LowerBack
	{
		OFFSET 0.000000 0.000000 0.000000
		CHANNELS 3 Zrotation Yrotation Xrotation
		JOINT Spine
		{
			OFFSET 0.028270 2.035590 -0.193380
			CHANNELS 3 Zrotation Yrotation Xrotation
			JOINT Spine1
			{
				OFFSET 0.056720 2.048850 -0.042750
				CHANNELS 3 Zrotation Yrotation Xrotation
				JOINT Neck
				{
					OFFSET 0.000000 0.000000 0.000000
					CHANNELS 3 Zrotation Yrotation Xrotation
					JOINT Neck1
					{
						OFFSET -0.054170 1.746240 0.172020
						CHANNELS 3 Zrotation Yrotation Xrotation
						JOINT Head
						{
							OFFSET 0.104070 1.761360 -0.123970
							CHANNELS 3 Zrotation Yrotation Xrotation
							End Site
							{
								OFFSET 0.000000 0.000000 0.000000
							}
						}
					}
				}
				JOINT LeftShoulder
				{
					OFFSET 0.000000 0.000000 0.000000
					CHANNELS 3 Zrotation Yrotation Xrotation
					JOINT LeftArm
					{
						OFFSET 3.362410 1.200890 -0.311210
						CHANNELS 3 Zrotation Yrotation Xrotation
						JOINT LeftForeArm
						{
							OFFSET 4.983000 -0.000000 -0.000000
							CHANNELS 3 Zrotation Yrotation Xrotation
							JOINT LeftHand
							{
								OFFSET 3.483560 -0.000000 -0.000000
								CHANNELS 3 Zrotation Yrotation Xrotation
								JOINT LeftFingerBase
								{
									OFFSET 0.000000 0.000000 0.000000
									CHANNELS 3 Zrotation Yrotation Xrotation
									JOINT LeftHandIndex1
									{
										OFFSET 0.715260 -0.000000 -0.000000
										CHANNELS 3 Zrotation Yrotation Xrotation
										End Site
										{
											OFFSET 0.000000 0.000000 0.000000
										}
									}
								}
								JOINT LThumb
								{
									OFFSET 0.000000 0.000000 0.000000
									CHANNELS 3 Zrotation Yrotation Xrotation
									End Site
									{
										OFFSET 0.000000 0.000000 0.000000
									}
								}
							}
						}
					}
				}
				JOINT RightShoulder
				{
					OFFSET 0.000000 0.000000 0.000000
					CHANNELS 3 Zrotation Yrotation Xrotation
					JOINT RightArm
					{
						OFFSET -3.136600 1.374050 -0.404650
						CHANNELS 3 Zrotation Yrotation Xrotation
						JOINT RightForeArm
						{
							OFFSET -5.241900 -0.000000 -0.000000
							CHANNELS 3 Zrotation Yrotation Xrotation
							JOINT RightHand
							{
								OFFSET -3.444170 -0.000000 -0.000000
								CHANNELS 3 Zrotation Yrotation Xrotation
								JOINT RightFingerBase
								{
									OFFSET 0.000000 0.000000 0.000000
									CHANNELS 3 Zrotation Yrotation Xrotation
									JOINT RightHandIndex1
									{
										OFFSET -0.622530 -0.000000 -0.000000
										CHANNELS 3 Zrotation Yrotation Xrotation
										End Site
										{
											OFFSET 0.000000 0.000000 0.000000
										}
									}
								}
								JOINT RThumb
								{
									OFFSET 0.000000 0.000000 0.000000
									CHANNELS 3 Zrotation Yrotation Xrotation
									End Site
									{
										OFFSET 0.000000 0.000000 0.000000
									}
								}
							}
						}
					}
				}
			}
		}
	}
}
MOTION
Frames: 6
Frame Time: 0.008333
-4.641075 16.868851 1.276917 137.637379 -78.483413 -123.397863 -8.335141 3.677316 4.326545 -24.749898 -6.300480 -8.333084 -3.339439 0.038697 18.894039 0.558996 0.886517 -10.032701 -0.176000 0.000001 -33.760200 11.585205 0.559064 2.859408 -5.527357 -0.881090 -40.391081 -0.793247 -3.580375 60.941722 -2.464613 -9.886388 -17.341222 1.382901 -0.000000 -21.041900 -2.024791 -2.521984 -8.086135 -0.492464 -2.489136 -3.948865 -5.265633 -2.418321 0.497033 6.415174 -15.634659 -8.028884 -3.003914 -0.231556 -0.039605 0.000000 0.000000 0.000000 0.545403 9.635228 -2.144249 -72.840940 -21.483679 21.726132 -177.802830 -63.258758 179.847872 21.093693 -22.970575 -4.791418 -0.823239 1.534032 -0.000000 0.000000 0.000000 0.000000 0.000000 0.000000 0.000000 2.559350 -11.588050 -1.983597 73.752917 -4.916271 31.177816 -179.252191 68.818155 179.846675 -16.174801 32.600182 -5.021562 0.223715 -1.227359 -0.000000 0.000000 0.000000 0.000000 0.000000 0.000000 0.000000 
-4.893139 16.993564 1.282806 138.885476 -78.997730 -124.541601 -8.614063 3.797730 4.368691 -23.827548 -5.985984 -6.633305 -3.194109 -0.039334 16.283299 0.409161 1.061216 -6.587293 0.031599 -0.000000 -37.787100 11.212844 0.547325 3.059495 -4.436964 -0.211476 -40.441820 -0.538485 -3.254950 56.780024 -2.492420 -9.663106 -16.627401 1.206600 -0.000000 -21.064000 -1.347631 -2.905017 -8.338033 -0.260877 -2.932369 -4.011497 -4.999894 -2.894855 0.467332 6.210959 -16.126122 -7.966786 -2.949878 -0.228649 -0.012546 0.000000 0.000000 0.000000 0.956326 8.717980 -2.152380 -73.550183 -21.447977 22.381097 -177.862089 -63.142730 179.845932 21.025634 -23.042330 -4.793827 -0.823595 1.552627 -0.000000 0.000000 0.000000 0.000000 0.000000 0.000000 0.000000 2.134803 -12.393207 -1.958262 72.311493 -5.538606 31.148678 -179.316624 68.361931 179.849923 -16.115777 32.418472 -4.973043 0.225217 -1.214771 -0.000000 0.000000 0.000000 0.000000 0.000000 0.000000 0.000000 
-5.147402 17.118854 1.285839 140.341666 -79.542080 -125.889124 -8.917549 3.941269 4.388432 -22.809232 -5.555668 -5.078288 -3.039427 -0.073816 13.830886 0.253610 1.013480 -2.908222 0.222500 -0.000001 -42.036100 10.837101 0.476375 3.280114 -3.311362 0.552991 -40.260842 -0.282702 -2.909114 52.259645 -2.468256 -9.253161 -15.594193 0.954100 -0.000000 -21.470200 -0.678327 -3.279744 -8.598574 -0.031671 -3.367354 -4.081240 -4.739201 -3.363205 0.432672 6.035300 -16.623455 -7.900050 -2.901106 -0.226284 0.015477 0.000000 0.000000 0.000000 1.448537 7.808914 -2.180424 -74.304479 -21.278272 23.025262 -177.946588 -63.034935 179.844442 20.900254 -23.130875 -4.785471 -0.819669 1.569591 -0.000000 0.000000 0.000000 0.000000 0.000000 0.000000 0.000000 1.761204 -13.193179 -1.938572 70.895900 -6.091367 31.029503 -179.389272 67.933939 179.854111 -15.968357 32.216616 -4.894241 0.225627 -1.201358 -0.000000 0.000000 0.000000 0.000000 0.000000 0.000000 0.000000 
-5.402884 17.242359 1.285812 142.105434 -80.106547 -127.550319 -9.246796 4.107343 4.366279 -21.690673 -4.947174 -3.700307 -2.881694 -0.060743 11.623165 0.097655 0.656033 0.927035 0.332900 0.000000 -46.495400 10.460449 0.344036 3.524828 -2.160076 1.434356 -39.837706 -0.023664 -2.542638 47.402794 -2.380373 -8.661265 -14.175903 0.630100 0.000000 -22.629400 -0.016920 -3.639734 -8.848572 0.192422 -3.787706 -4.151748 -4.493086 -3.815883 0.403496 5.897178 -17.127215 -7.838860 -2.854126 -0.223993 0.041308 0.000000 0.000000 0.000000 2.002870 6.962852 -2.225253 -75.084333 -21.076331 23.697371 -178.048916 -62.975257 179.843493 20.722682 -23.212701 -4.762473 -0.812284 1.583935 -0.000000 0.000000 0.000000 0.000000 0.000000 0.000000 0.000000 1.439842 -13.985228 -1.926608 69.526574 -6.580336 30.818801 -179.466064 67.523005 179.858920 -15.739857 32.002589 -4.789152 0.224813 -1.187770 -0.000000 0.000000 0.000000 0.000000 0.000000 0.000000 0.000000 
-5.658428 17.361291 1.281371 144.056522 -80.662713 -129.407089 -9.582581 4.287997 4.297398 -20.528090 -4.181155 -2.513413 -2.730449 -0.004780 9.736972 -0.044049 -0.035004 4.774807 0.292600 -0.000000 -50.514600 10.097224 0.160383 3.794377 -1.041234 2.406774 -39.196447 0.242135 -2.158703 42.266256 -2.217982 -7.893937 -12.339297 0.253500 0.000000 -24.719800 0.585307 -3.989454 -9.080432 0.402552 -4.191649 -4.224322 -4.253119 -4.251512 0.365915 5.795240 -17.653098 -7.775932 -2.807029 -0.221765 0.067313 0.000000 0.000000 0.000000 2.682950 6.088185 -2.299912 -75.910466 -20.739886 24.325932 -178.187546 -62.917858 179.842548 20.459529 -23.284989 -4.716094 -0.798221 1.595376 -0.000000 0.000000 0.000000 0.000000 0.000000 0.000000 0.000000 1.148120 -14.788423 -1.910670 68.230306 -7.005240 30.540141 -179.545095 67.136201 179.864162 -15.454589 31.789258 -4.667964 0.223174 -1.174338 -0.000000 0.000000 0.000000 0.000000 0.000000 0.000000 0.000000 
-5.912978 17.473530 1.272738 146.223706 -81.197693 -131.501993 -9.922361 4.475741 4.169845 -19.334192 -3.231226 -1.528486 -2.587644 0.088708 8.239369 -0.160125 -1.079069 8.523604 0.039200 0.000000 -54.000900 9.751706 -0.065089 4.085262 0.028522 3.461909 -38.341631 0.518864 -1.758027 36.902005 -1.980557 -7.001585 -10.046208 -0.149500 -0.000000 -27.989400 1.125154 -4.324595 -9.273678 0.595046 -4.574220 -4.291007 -4.029763 -4.663719 0.334321 5.739404 -18.200169 -7.725776 -2.756609 -0.219080 0.089062 0.000000 0.000000 0.000000 3.457529 5.261915 -2.398690 -76.759536 -20.397952 24.961547 -178.347717 -62.903712 179.841746 20.129286 -23.317723 -4.644752 -0.779461 1.602899 -0.000000 0.000000 0.000000 0.000000 0.000000 0.000000 0.000000 0.893994 -15.598191 -1.895425 67.014417 -7.372402 30.194656 -179.622602 66.752876 179.869507 -15.131794 31.583688 -4.538075 0.220958 -1.161874 -0.000000 0.000000 0.000000 0.000000 0.000000 0.000000 0.000000 
